<?xml version="1.0" encoding="UTF-8"?>
<svg xmlns="http://www.w3.org/2000/svg" width="164" height="48" viewBox="0 0 164 48" fill="none">
  <path fill-rule="evenodd" clip-rule="evenodd" d="M13.6972 0H41.9641C43.6617 0 45.2897 0.674357 46.49 1.87472C47.6904 3.07509 48.3648 4.70313 48.3648 6.4007V34.6661C48.3648 42.0313 42.3946 48 35.0309 48H6.76398C5.06667 48 3.43884 47.3258 2.23852 46.1258C1.0382 44.9258 0.363679 43.2981 0.363281 41.6008V13.3354C0.363281 5.97019 6.33348 0 13.6972 0Z" fill="#2A67FF"></path>
  <path fill-rule="evenodd" clip-rule="evenodd" d="M24.4377 20.1788H41.8653L24.4392 37.6064H7.01172L24.4377 20.1788Z" fill="#F9DF00"></path>
  <path fill-rule="evenodd" clip-rule="evenodd" d="M24.3996 20.1569H41.8271L24.3651 27.2851H6.9375L24.3996 20.1569Z" fill="#B3A000"></path>
  <path fill-rule="evenodd" clip-rule="evenodd" d="M24.3651 9.86023H41.7911L24.3651 27.2878H6.9375L24.3651 9.86023Z" fill="white"></path>
  <path d="M73.257 11.5199C74.5246 11.5199 75.7426 11.6609 76.9096 11.9444C78.0767 12.2264 79.1147 12.6839 80.0207 13.317C80.9268 13.95 81.6468 14.757 82.1793 15.741C82.5768 16.4761 82.8258 17.3311 82.9263 18.3001H77.6551C77.5864 18.0292 77.4847 17.7677 77.3521 17.5216C77.1088 17.0655 76.7518 16.68 76.3156 16.4026C75.8617 16.1223 75.3605 15.9271 74.8365 15.8265C74.2377 15.7094 73.6287 15.6526 73.0185 15.657C72.5865 15.657 72.156 15.702 71.7255 15.792C71.295 15.882 70.9049 16.041 70.5539 16.2675C70.2014 16.4926 69.9134 16.7761 69.6869 17.1151C69.4604 17.4541 69.3464 17.8831 69.3464 18.4036C69.3464 18.8776 69.4364 19.2616 69.6179 19.5556C69.7994 19.8497 70.1579 20.1212 70.6889 20.3702C71.2215 20.6177 71.958 20.8667 72.8985 21.1157C73.839 21.3647 75.0691 21.6812 76.5871 22.0652C77.0401 22.1552 77.6687 22.3202 78.4742 22.5572C79.2782 22.7942 80.0762 23.1723 80.8697 23.6928C81.6633 24.2133 82.3488 24.9078 82.9263 25.7778C83.5038 26.6479 83.7933 27.7609 83.7933 29.1184C83.7933 30.2255 83.5773 31.2545 83.1483 32.204C82.7103 33.1626 82.0525 34.0044 81.2283 34.6611C80.3777 35.3511 79.3232 35.8882 78.0662 36.2722C76.8076 36.6562 75.3511 36.8482 73.698 36.8482C72.36 36.8482 71.064 36.6847 69.8054 36.3577C68.6081 36.0575 67.4782 35.5338 66.4753 34.8141C65.5114 34.1127 64.7254 33.1952 64.1802 32.135C63.6762 31.1705 63.4062 30.0455 63.3672 28.7599V28.7344L68.5484 28.7374C68.5859 29.2415 68.6893 29.693 68.8559 30.0875L68.9729 30.338C69.2669 30.9035 69.6584 31.361 70.1459 31.712C70.6334 32.0615 71.2049 32.3225 71.8619 32.4921C72.519 32.6616 73.1985 32.7471 73.902 32.7471C74.3775 32.7471 74.8875 32.7066 75.4321 32.6271C75.9622 32.5522 76.478 32.398 76.9621 32.1695C77.4362 31.9445 77.8322 31.6325 78.1502 31.2365C78.4682 30.842 78.6272 30.338 78.6272 29.729C78.6272 29.0734 78.4172 28.5409 77.9972 28.1344C77.5772 27.7279 77.0281 27.3889 76.3486 27.1174C75.5971 26.8237 74.825 26.5855 74.0385 26.4049C73.1608 26.1973 72.2876 25.9713 71.4195 25.7268C70.5202 25.5028 69.6351 25.2253 68.7689 24.8958C67.9408 24.5866 67.1621 24.1586 66.4573 23.6253C65.774 23.1013 65.2117 22.4361 64.8087 21.6752C64.3887 20.8952 64.1787 19.9502 64.1787 18.8446C64.1787 17.5996 64.4457 16.5211 64.9782 15.6045C65.5108 14.6895 66.2083 13.9275 67.0693 13.317C67.9556 12.695 68.9456 12.2358 69.9929 11.9609C71.0562 11.6703 72.1533 11.522 73.2555 11.5199H73.257ZM94.6327 33.1806H90.5841V21.9362H94.5997C95.3707 21.9362 96.0217 22.1012 96.5557 22.4282C97.0882 22.7582 97.5248 23.1873 97.8653 23.7183C98.2043 24.2523 98.4488 24.8583 98.5958 25.5363C98.7443 26.2159 98.8178 26.9074 98.8178 27.6094C98.8178 28.3114 98.7488 29.0014 98.6138 29.6795C98.4773 30.3605 98.2448 30.9545 97.9163 31.4645C97.5881 31.9729 97.1452 32.3973 96.6232 32.7036C96.0907 33.0216 95.4262 33.1806 94.6327 33.1806ZM85.7539 18.3001V42.4869H90.5841V36.7837L95.9257 36.7807C97.2188 36.7807 98.3468 36.5302 99.3098 36.0322C100.253 35.5509 101.078 34.8665 101.725 34.0281C102.373 33.1911 102.854 32.228 103.171 31.142C103.489 30.0545 103.648 28.9219 103.648 27.7444C103.652 26.5337 103.492 25.3281 103.171 24.1608C102.881 23.074 102.385 22.0534 101.708 21.1547C101.044 20.289 100.196 19.5815 99.2258 19.0831C98.2283 18.5626 97.0358 18.3016 95.6542 18.3016L85.7539 18.3001ZM118.333 25.6668H110.503C110.526 25.3278 110.599 24.9438 110.724 24.5133C110.864 24.0382 111.103 23.5979 111.424 23.2206C111.745 22.8434 112.142 22.5377 112.588 22.3232C113.097 22.0637 113.734 21.9332 114.502 21.9332C115.678 21.9332 116.553 22.2497 117.129 22.8843C117.706 23.5173 118.107 24.4443 118.333 25.6668ZM110.503 28.7224H123.146C123.24 27.4116 123.126 26.0942 122.807 24.8193C122.512 23.6212 121.988 22.4914 121.265 21.4922C120.548 20.5154 119.614 19.7193 118.536 19.1671C117.429 18.5896 116.13 18.3016 114.639 18.3016C113.305 18.3016 112.09 18.5386 110.994 19.0141C109.899 19.4896 108.955 20.1392 108.165 20.9657C107.362 21.8107 106.739 22.8099 106.335 23.9028C105.898 25.0752 105.679 26.3177 105.69 27.5689C105.69 28.9264 105.9 30.17 106.318 31.3025C106.707 32.3862 107.312 33.3794 108.097 34.2216C108.884 35.0492 109.845 35.6926 110.91 36.1057C112.017 36.5467 113.26 36.7672 114.639 36.7672C116.626 36.7672 118.321 36.3142 119.722 35.4096C121.123 34.5036 122.163 32.9991 122.841 30.8945H118.603C118.446 31.4375 118.017 31.952 117.316 32.4396C116.616 32.9256 115.779 33.1686 114.808 33.1686C113.452 33.1686 112.413 32.8176 111.69 32.117C110.967 31.415 110.571 30.284 110.505 28.7224H110.503ZM137.861 25.6668H130.031C130.053 25.3278 130.127 24.9438 130.251 24.5133C130.392 24.0382 130.63 23.5979 130.951 23.2206C131.273 22.8434 131.669 22.5377 132.116 22.3232C132.624 22.0637 133.262 21.9332 134.03 21.9332C135.206 21.9332 136.08 22.2497 136.658 22.8843C137.234 23.5173 137.635 24.4443 137.861 25.6668ZM130.031 28.7224H142.673C142.768 27.4116 142.653 26.0942 142.334 24.8193C142.04 23.6212 141.516 22.4914 140.792 21.4922C140.076 20.5154 139.142 19.7193 138.064 19.1671C136.957 18.5896 135.657 18.3016 134.166 18.3016C132.833 18.3016 131.618 18.5386 130.521 19.0141C129.426 19.4896 128.483 20.1392 127.692 20.9657C126.89 21.8107 126.267 22.8099 125.862 23.9028C125.425 25.0752 125.207 26.3177 125.217 27.5689C125.217 28.9264 125.427 30.17 125.846 31.3025C126.234 32.3862 126.84 33.3794 127.625 34.2216C128.412 35.0492 129.372 35.6926 130.437 36.1057C131.546 36.5467 132.788 36.7672 134.166 36.7672C136.154 36.7672 137.849 36.3142 139.252 35.4096C140.651 34.5036 141.691 32.9991 142.369 30.8945H138.131C137.974 31.4375 137.545 31.952 136.844 32.4396C136.143 32.9256 135.308 33.1686 134.336 33.1686C132.98 33.1686 131.94 32.8176 131.217 32.117C130.494 31.415 130.098 30.284 130.032 28.7224H130.031ZM153.762 21.9032H157.81V33.1356H153.795C153.024 33.1356 152.372 32.9721 151.838 32.6436C151.309 32.319 150.861 31.8778 150.529 31.3535C150.179 30.797 149.932 30.1823 149.798 29.5385C149.651 28.8584 149.576 28.1644 149.576 27.4684C149.576 26.7679 149.645 26.0779 149.78 25.3983C149.917 24.7203 150.149 24.1263 150.478 23.6178C150.808 23.1078 151.238 22.6952 151.771 22.3787C152.303 22.0622 152.968 21.9032 153.762 21.9032ZM162.64 36.7672V11.5199H157.81V18.3031L152.468 18.3061C151.175 18.3061 150.047 18.5551 149.083 19.0531C148.14 19.5339 147.315 20.2178 146.668 21.0557C146.009 21.9178 145.518 22.8964 145.222 23.9403C144.902 25.0428 144.742 26.1855 144.746 27.3334C144.746 28.5784 144.905 29.771 145.222 30.914C145.54 32.0555 146.027 33.0576 146.686 33.9171C147.343 34.7766 148.171 35.4666 149.168 35.9872C150.166 36.5077 151.358 36.7672 152.74 36.7672H162.64Z" fill="#2A67FF"></path>
</svg>
